<svg xmlns="http://www.w3.org/2000/svg" viewBox="0 0 458.056 458.056" style="enable-background:new 0 0 458.056 458.056" xml:space="preserve"><path d="M191.921 270.127c-1.164-26.798-10.697-56.958-26.843-84.925-14.052-24.339-31.728-44.915-51.116-59.503-17.4-13.092-35.016-20.303-49.602-20.303-6.565 0-12.191 1.406-17.201 4.299-14.134 8.161-21.574 28.189-20.412 54.949 1.164 26.798 10.697 56.958 26.843 84.924 14.053 24.339 31.728 44.915 51.115 59.502 17.401 13.092 35.018 20.303 49.604 20.304h.006c6.557 0 12.181-1.406 17.193-4.299 14.135-8.159 21.575-28.188 20.413-54.948zm-27.911 41.958c-2.669 1.541-5.84 2.29-9.694 2.29h-.004c-11.355-.001-25.769-6.142-40.587-17.291-17.79-13.384-34.092-32.408-47.145-55.015-14.962-25.916-23.787-53.643-24.848-78.075-.884-20.366 4.069-36.194 12.926-41.308 2.668-1.541 5.841-2.289 9.701-2.289 11.353 0 25.766 6.14 40.583 17.289 17.79 13.386 34.092 32.41 47.144 55.017 14.962 25.916 23.786 53.643 24.847 78.076.886 20.365-4.067 36.193-12.923 41.306z"/><path d="M61.454 172.408a7.501 7.501 0 0 0 7.031-7.942c-.813-13.35 1.451-19.859 2.101-20.871a7.499 7.499 0 0 0-2.187-10.378 7.5 7.5 0 0 0-10.379 2.187c-3.626 5.563-5.311 16.768-4.508 29.974a7.5 7.5 0 0 0 7.942 7.03zM129.718 275.827c-14.955-11.251-28.821-27.524-40.099-47.059-7.365-12.756-12.938-25.718-16.566-38.525a7.5 7.5 0 0 0-14.432 4.088c3.965 13.999 10.024 28.108 18.008 41.937 12.278 21.267 27.518 39.091 44.071 51.545a7.463 7.463 0 0 0 4.503 1.507 7.5 7.5 0 0 0 4.515-13.493zM154.316 287.772a7.5 7.5 0 0 0 0 15h.048c4.142 0 7.476-3.358 7.476-7.5s-3.382-7.5-7.524-7.5z"/><path d="M445.803 334.135c-.152-.088-.308-.163-.461-.247L270.307 234.5c-2.089-29.744-12.699-62.471-30.14-92.673-19.812-34.313-46.327-62.148-74.661-78.377-29.614-16.963-57.884-19.398-79.599-6.858l-52.05 30.066C12.14 99.195.117 124.896.001 159.025c-.11 32.652 10.74 69.532 30.551 103.846 19.811 34.313 46.325 62.149 74.658 78.38 17.139 9.818 33.826 14.771 49.054 14.771 11.085 0 21.397-2.625 30.546-7.907.075-.043 55.957-32.517 57.798-33.904l160.904 91.436c.216.134.426.274.648.402 3.838 2.216 8.047 3.325 12.258 3.325 4.208 0 8.417-1.107 12.255-3.322l.159-.091c18.026-10.399 29.224-29.788 29.224-50.598 0-8.861-4.581-16.796-12.253-21.228zM93.41 69.58c16.896-9.757 39.852-7.313 64.641 6.885 26.07 14.933 50.619 40.809 69.126 72.862 14.665 25.396 24.157 52.552 27.336 77.748-5.591-1.011-11.356-.032-16.463 2.912l-.189.108c-8.841 5.099-16.034 12.364-21.075 20.897-3.891-25.881-13.73-53.215-28.67-79.091-19.811-34.314-46.325-62.15-74.657-78.38-12.898-7.388-25.539-12.019-37.496-13.859L93.41 69.58zm19.255 258.655c-26.068-14.933-50.617-40.811-69.124-72.864C25.035 223.317 14.898 189.119 15 159.076c.097-28.566 9.457-49.671 26.357-59.428 6.807-3.93 14.595-5.88 23.091-5.88 12.598 0 26.75 4.289 41.553 12.769 26.068 14.934 50.617 40.811 69.123 72.865s28.643 66.252 28.541 96.295c-.097 28.565-9.457 49.671-26.356 59.428-16.898 9.755-39.857 7.31-64.644-6.89zm99.269-13.122c1.966-5.061 3.508-10.526 4.621-16.354a24.928 24.928 0 0 0 5.956 4.031l5.42 3.08-15.997 9.243zm209.397 77.857-.159.091c-4.291 2.478-8.081.824-9.511-.002-1.43-.826-4.755-3.281-4.755-8.238a43.461 43.461 0 0 1 5.82-21.713 7.5 7.5 0 0 0-12.99-7.502 58.505 58.505 0 0 0-7.747 26.243 943939.73 943939.73 0 0 1-163.894-93.091c-2.311-1.469-4.459-4.188-4.459-8.063 0-15.471 8.321-29.881 21.688-37.589l.188-.107c2.645-1.525 5.725-1.706 8.492-.511l164.932 93.657a7.5 7.5 0 0 0 9.694 11.069l.158-.091c4.292-2.476 8.081-.824 9.512.002 1.43.826 4.755 3.281 4.755 8.237.001 15.467-8.322 29.876-21.724 37.608z"/></svg>